<svg width="32" height="32" viewBox="0 0 32 32" fill="none" xmlns="http://www.w3.org/2000/svg">
<path d="M25 16C25 16.1524 24.9395 16.2985 24.8317 16.4062C24.724 16.5139 24.5779 16.5745 24.4255 16.5745H16.5745V24.4255C16.5745 24.5779 16.5139 24.724 16.4062 24.8317C16.2985 24.9395 16.1524 25 16 25C15.8476 25 15.7015 24.9395 15.5938 24.8317C15.4861 24.724 15.4255 24.5779 15.4255 24.4255V16.5745H7.57447C7.42211 16.5745 7.27599 16.5139 7.16826 16.4062C7.06052 16.2985 7 16.1524 7 16C7 15.8476 7.06052 15.7015 7.16826 15.5938C7.27599 15.4861 7.42211 15.4255 7.57447 15.4255H15.4255V7.57447C15.4255 7.42211 15.4861 7.27599 15.5938 7.16826C15.7015 7.06052 15.8476 7 16 7C16.1524 7 16.2985 7.06052 16.4062 7.16826C16.5139 7.27599 16.5745 7.42211 16.5745 7.57447V15.4255H24.4255C24.5779 15.4255 24.724 15.4861 24.8317 15.5938C24.9395 15.7015 25 15.8476 25 16Z" fill="black"/>
<rect x="0.5" y="0.5" width="31" height="31" stroke="black"/>
</svg>
