<svg width="87" height="75" viewBox="0 0 87 75" fill="none" xmlns="http://www.w3.org/2000/svg">
<path d="M84.825 50.2832C83.1561 47.6712 80.6244 44.1966 78.6437 43.6514C77.5504 42.8437 75.8612 42.1947 74.0516 41.5183L73.1294 41.1692C73.1541 40.4437 72.9293 39.9188 72.4305 39.5712C69.3797 37.4524 66.2855 34.3197 63.313 30.7962C63.3927 30.5885 63.4391 30.3635 63.4391 30.1212C63.4391 29.2111 62.8229 28.474 62.0646 28.474C61.8456 28.474 61.6455 28.4928 61.4295 28.4957C60.5624 27.4013 59.7145 26.292 58.8862 25.1683C59.0283 24.9101 59.1312 24.6173 59.1312 24.2856C59.1312 23.374 58.515 22.637 57.7581 22.637C57.687 22.637 57.4391 22.6385 57.0606 22.6529C56.0942 21.2882 55.1434 19.9127 54.2085 18.5264C54.268 18.3433 54.3071 18.1486 54.3071 17.9423C54.3071 17.0308 53.6923 16.2923 52.9354 16.2923C52.8615 16.2923 52.7948 16.2981 52.7237 16.2981C51.8429 14.9606 50.9696 13.6182 50.1036 12.2712C50.1471 12.1082 50.1892 11.9409 50.1892 11.762C50.1892 10.8519 49.5715 10.1149 48.816 10.1149L48.7203 10.1178C45.1881 4.63125 44.5458 3.80337 43.5671 3.80337C42.9204 3.80337 42.3201 3.84663 41.7357 3.90577C41.5153 3.51202 41.2906 3.12981 41.0716 2.73029C40.3887 1.48702 38.93 0 35.872 0C31.2393 0 24.8825 3.4226 21.1517 5.70865C17.6152 4.21587 14.6079 3.44279 12.2401 3.44279C9.82293 3.44279 8.69774 4.22596 8.2265 4.70048C8.1975 4.725 8.1627 4.73942 8.13515 4.76827C5.52807 7.60096 3.85043 12.8971 2.77309 18.1428C1.05631 23.576 0.869258 27.9995 0.896808 30.0389C0.790459 30.1626 0.698974 30.2981 0.62421 30.4428C-0.377732 32.5125 -0.173283 40.5447 1.2361 42.2885C4.85093 46.7784 8.54985 49.6889 12.4663 52.7712C16.896 56.2572 21.475 59.8615 26.8574 66.287C31.4945 71.8255 41.1485 75 53.3472 75C69.5987 75 87 69.2611 87 60.7212C87 51.3202 85.9807 50.3279 84.825 50.2832ZM83.2286 51.7341C80.0865 56.5817 65.4981 59.1952 52.6541 59.1952C48.3665 59.1952 44.5821 58.901 41.9938 58.3644C38.4095 57.6216 35.0324 56.3928 31.8657 54.8726C34.8396 51.0014 40.2219 50.4 45.7058 50.4C47.8358 50.4 50.034 50.4952 52.3641 50.599C54.7436 50.7029 57.2042 50.8096 59.6373 50.8096C65.5097 50.8096 72.9032 50.2298 78.4349 45.8034C79.4253 46.3976 81.3929 48.8394 83.2286 51.7341ZM65.9824 38.5125C66.822 39.3837 67.6137 40.2101 68.2937 40.9471C69.2231 41.9567 71.2067 42.6995 73.3034 43.4856C74.388 43.8923 75.4798 44.3091 76.3426 44.7317C71.4648 48.2048 65.2052 48.7082 59.6373 48.7082C57.3651 48.7082 55.051 48.6101 52.7977 48.5106C52.7933 46.213 52.4569 43.8764 51.8871 42.4457C55.1742 40.5245 59.8997 38.674 65.9824 38.5125ZM59.6576 31.849C60.7636 33.05 61.8816 34.2399 63.0114 35.4187C57.5246 36.0346 53.2225 37.8793 50.1544 39.7615C49.0791 38.2536 47.9955 36.7517 46.9035 35.2558C49.8078 33.6577 53.962 32.1822 59.6576 31.849ZM56.9127 28.7971C51.6681 29.4447 47.7749 31.0111 44.9895 32.6712C44.1137 31.4913 43.2539 30.349 42.4158 29.2486C46.6526 27.225 51.5144 26.4346 54.6102 26.1288C55.3932 27.0562 56.1573 27.9375 56.9127 28.7971ZM40.4336 26.6813C39.3861 25.3385 38.3252 24.0063 37.2509 22.6846C40.3046 21.3721 44.4197 20.1361 49.5309 19.7365C50.3835 20.8717 51.2541 21.9935 52.1423 23.1014C48.7392 23.5904 44.3312 24.6029 40.4336 26.6813ZM52.3888 19.6067C53.0282 20.5587 53.688 21.525 54.3695 22.5029C53.601 21.5505 52.8455 20.588 52.1031 19.6154C52.1988 19.6125 52.2916 19.6067 52.3888 19.6067ZM48.3317 13.425C48.9349 14.3611 49.57 15.3418 50.2428 16.3731C50.0659 16.3817 49.8977 16.4019 49.7223 16.4135C49.0171 15.4323 48.3244 14.4424 47.6444 13.4437C47.8764 13.438 48.0983 13.4279 48.3317 13.425ZM35.1006 20.1029C34.0973 18.9159 33.0759 17.7441 32.0368 16.588C35.1687 15.2394 39.5216 13.9587 45.1693 13.5534C45.874 14.612 46.5801 15.6433 47.2848 16.6413C42.1446 17.276 38.076 18.6909 35.1006 20.1029ZM43.2727 5.91202C43.786 6.43702 44.9474 8.18221 46.2481 10.187C46.0045 10.1986 45.7594 10.2087 45.5202 10.2231C44.6172 8.81044 43.7412 7.38085 42.8928 5.9351C43.0219 5.93077 43.1393 5.9149 43.2727 5.91202ZM35.872 2.10288C37.5105 2.10288 38.6023 2.63798 39.2084 3.73846C40.4536 6.00314 41.7644 8.23148 43.1393 10.4207C37.2582 11.0567 32.8241 12.6058 29.7081 14.1173C26.6573 10.9803 24.0792 8.81538 21.9956 7.67308C25.4901 5.50962 31.6569 2.10288 35.872 2.10288ZM9.81858 6.08654C10.0419 5.92789 10.7306 5.54423 12.2386 5.54423C13.4073 5.54423 15.2778 5.79663 18.0197 6.75144C14.3396 7.16394 12.3039 10.037 10.6625 12.4082C9.60689 13.9284 8.61509 15.3635 7.6871 15.4125C7.11871 14.6913 8.1337 10.2822 9.81858 6.08654ZM5.53387 15.5495C5.60927 15.9534 5.73687 16.3053 5.92537 16.5851C6.31396 17.1548 6.91716 17.4649 7.62475 17.4649C9.73304 17.4649 11.0337 15.587 12.4112 13.5966C14.0583 11.2226 15.7592 8.76779 18.9086 8.76779C20.6688 8.76779 23.7138 11.012 27.7462 15.1413C26.7385 15.7212 25.9628 16.2505 25.377 16.6817C25.2147 16.6275 25.045 16.5983 24.8738 16.5952C23.7675 16.5952 22.8714 17.6712 22.8714 18.9981C22.8714 20.325 23.7675 21.401 24.8738 21.401C25.8424 21.401 26.65 20.5745 26.8356 19.4755C27.842 18.7499 28.9026 18.1019 30.0082 17.537C31.0727 18.709 32.1164 19.8996 33.1387 21.1082C32.2087 21.6226 31.3083 22.1884 30.4418 22.8029C30.27 22.7416 30.0892 22.7089 29.9067 22.7063C28.8018 22.7063 27.9057 23.7808 27.9057 25.1091C27.9057 26.4375 28.8018 27.512 29.9067 27.512C30.8594 27.512 31.6525 26.7101 31.8555 25.6385C32.9325 24.8848 34.0626 24.209 35.2369 23.6163C36.3142 24.9274 37.4307 26.3135 38.5806 27.7817C37.3951 28.5601 36.3042 29.4725 35.3297 30.5005C35.276 30.4947 35.2253 30.4817 35.1702 30.4817C34.0609 30.4817 33.1663 31.5577 33.1663 32.8846C33.1663 34.2101 34.0609 35.2875 35.1702 35.2875C36.2533 35.2875 37.1335 34.2462 37.1625 32.951C38.1518 31.9108 39.2792 31.0097 40.5134 30.2726C41.3906 31.4178 42.2882 32.6019 43.206 33.8279C42.1461 34.5871 41.1644 35.449 40.2756 36.401C40.2306 36.3981 40.1871 36.3851 40.1422 36.3851C39.0387 36.3851 38.1412 37.4625 38.1412 38.7894C38.1412 40.1149 39.0387 41.1923 40.1422 41.1923C41.2355 41.1923 42.1171 40.1394 42.1388 38.8341C43.0289 37.9083 44.0162 37.08 45.0837 36.3635C46.1964 37.8802 47.2989 39.4042 48.3912 40.9356C47.3979 41.6414 46.4551 42.4149 45.5695 43.2505C45.4767 43.2346 45.3853 43.2173 45.2911 43.2173C44.1833 43.2173 43.2887 44.2947 43.2887 45.6202C43.2887 46.9471 44.1833 48.0231 45.2911 48.0231C46.3264 48.0231 47.1717 47.0697 47.2703 45.8524C48.1553 45.0293 49.0998 44.272 50.0964 43.5865C50.5183 44.775 50.6981 46.6327 50.6894 48.424C49.0302 48.3477 47.3696 48.3049 45.7087 48.2957C39.4795 48.2957 33.3504 49.0413 29.9372 53.9048C20.866 49.0774 13.7495 41.925 9.08779 36.6808C9.19219 32.0019 8.0293 29.0784 6.86496 26.2817C5.89347 23.9423 4.97707 21.7269 4.87847 18.476C5.07422 17.4937 5.29027 16.5101 5.53387 15.5495ZM4.90023 27.0822C5.78907 29.2183 6.62716 31.301 6.89831 34.1668C6.51406 33.7154 6.15446 33.2899 5.82387 32.8976C4.35793 31.1639 3.58364 30.2639 3.01814 29.8197C3.02519 27.7409 3.21832 25.6668 3.59524 23.6221C3.97513 24.8611 4.44203 25.9817 4.90023 27.0822ZM53.3472 72.8971C41.7807 72.8971 32.7226 69.9981 28.4901 64.9457C22.9671 58.35 18.0893 54.512 13.7858 51.124C9.96648 48.1197 6.36036 45.2798 2.89344 40.9788C2.18585 40.0471 1.8973 34.301 2.3149 32.0683C2.81659 32.6178 3.51404 33.4413 4.19553 34.249C9.84323 40.9356 23.07 56.5904 41.5617 60.4226C44.2863 60.9865 48.2273 61.2966 52.6541 61.2966C62.5895 61.2966 79.4528 59.6163 84.5176 53.5788C84.6989 54.7731 84.8772 56.9149 84.8772 60.7183C84.8772 67.0933 69.8481 72.8971 53.3472 72.8971Z" fill="black"/>
</svg>
