<svg width="32" height="32" viewBox="0 0 32 32" fill="none" xmlns="http://www.w3.org/2000/svg">
<rect x="0.5" y="0.5" width="31" height="31" fill="#B8FF5F" stroke="black"/>
<path d="M24.8007 10.2335L13.9212 21.7882C13.8581 21.8553 13.7831 21.9086 13.7005 21.945C13.618 21.9813 13.5295 22 13.4401 22C13.3508 22 13.2623 21.9813 13.1797 21.945C13.0972 21.9086 13.0222 21.8553 12.9591 21.7882L8.19927 16.733C8.07168 16.5975 8 16.4137 8 16.2221C8 16.0304 8.07168 15.8467 8.19927 15.7112C8.32686 15.5756 8.49991 15.4995 8.68035 15.4995C8.86079 15.4995 9.03384 15.5756 9.16143 15.7112L13.4401 20.2563L23.8386 9.21164C23.9662 9.07613 24.1392 9 24.3197 9C24.5001 9 24.6731 9.07613 24.8007 9.21164C24.9283 9.34714 25 9.53093 25 9.72257C25 9.91421 24.9283 10.098 24.8007 10.2335Z" fill="black"/>
</svg>
