<svg width="32" height="32" viewBox="0 0 32 32" fill="none" xmlns="http://www.w3.org/2000/svg">
<rect x="0.5" y="0.5" width="31" height="31" stroke="black"/>
<path d="M22.727 9.09099C22.844 9.20795 22.9097 9.36658 22.9097 9.53199C22.9097 9.6974 22.844 9.85603 22.727 9.97299L16.7 16L22.727 22.027C22.844 22.144 22.9097 22.3026 22.9097 22.468C22.9097 22.6334 22.844 22.7921 22.727 22.909C22.6101 23.026 22.4514 23.0917 22.286 23.0917C22.1206 23.0917 21.962 23.026 21.845 22.909L15.818 16.882L9.79101 22.909C9.67405 23.026 9.51542 23.0917 9.35001 23.0917C9.18461 23.0917 9.02597 23.026 8.90901 22.909C8.79205 22.7921 8.72634 22.6334 8.72634 22.468C8.72634 22.3026 8.79205 22.144 8.90901 22.027L14.936 16L8.90901 9.97299C8.79205 9.85603 8.72634 9.6974 8.72634 9.53199C8.72634 9.36658 8.79205 9.20795 8.90901 9.09099C9.02597 8.97403 9.18461 8.90832 9.35001 8.90832C9.51542 8.90832 9.67405 8.97403 9.79101 9.09099L15.818 15.118L21.845 9.09099C21.962 8.97403 22.1206 8.90832 22.286 8.90832C22.4514 8.90832 22.6101 8.97403 22.727 9.09099Z" fill="black"/>
</svg>
