<svg width="32" height="32" viewBox="0 0 32 32" fill="none" xmlns="http://www.w3.org/2000/svg">
<rect x="0.5" y="0.5" width="31" height="31" stroke="black"/>
<path d="M19.4444 9C20.679 9 21.716 9.40476 22.5556 10.2143C23.3951 11.0238 23.8148 12.0119 23.8148 13.1786C23.8148 13.75 23.6914 14.3274 23.4444 14.9107C23.1975 15.494 22.9259 16.0119 22.6296 16.4643C22.3333 16.9167 21.8333 17.5 21.1296 18.2143C20.4259 18.9286 19.8333 19.506 19.3519 19.9464C18.8704 20.3869 18.0988 21.0595 17.037 21.9643L15.8889 22.9643L14.7407 22C13.7037 21.0714 12.9383 20.3869 12.4444 19.9464C11.9506 19.506 11.3519 18.9286 10.6481 18.2143C9.94444 17.5 9.44444 16.9167 9.14815 16.4643C8.85185 16.0119 8.58642 15.494 8.35185 14.9107C8.11728 14.3274 8 13.75 8 13.1786C8 12.0119 8.41975 11.0238 9.25926 10.2143C10.0988 9.40476 11.1235 9 12.3333 9C13.7654 9 14.9506 9.53571 15.8889 10.6071C16.8272 9.53571 18.0123 9 19.4444 9ZM15.963 20.8571C17.1728 19.8095 18.0556 19.0298 18.6111 18.5179C19.1667 18.006 19.7778 17.3929 20.4444 16.6786C21.1111 15.9643 21.5741 15.3393 21.8333 14.8036C22.0926 14.2679 22.2222 13.7262 22.2222 13.1786C22.2222 12.4167 21.9568 11.7857 21.4259 11.2857C20.8951 10.7857 20.2346 10.5357 19.4444 10.5357C18.8519 10.5357 18.2901 10.7024 17.7593 11.0357C17.2284 11.369 16.8519 11.7976 16.6296 12.3214H15.1481C14.9506 11.7976 14.5864 11.369 14.0556 11.0357C13.5247 10.7024 12.9506 10.5357 12.3333 10.5357C11.5432 10.5357 10.8889 10.7857 10.3704 11.2857C9.85185 11.7857 9.59259 12.4167 9.59259 13.1786C9.59259 13.7262 9.71605 14.2679 9.96296 14.8036C10.2099 15.3393 10.6728 15.9643 11.3519 16.6786C12.0309 17.3929 12.6481 18.006 13.2037 18.5179C13.7593 19.0298 14.6296 19.8095 15.8148 20.8571L15.8889 20.9286L15.963 20.8571Z" fill="black"/>
</svg>
