<svg width="612" height="206" viewBox="0 0 612 206" fill="none" xmlns="http://www.w3.org/2000/svg">
<path d="M17.76 109.96C15.0933 109.96 12.8 107.933 10.88 103.88C8.96 99.8267 8 94.8667 8 89V55.72C8 53.6933 13.6 50.2267 24.8 45.32C36 40.3067 42.4533 37.8 44.16 37.8C45.44 37.8 47.2533 39.9333 49.6 44.2C50.1333 45.2667 50.88 46.7067 51.84 48.52C52.9067 50.3333 53.76 51.8267 54.4 53C55.7867 55.56 57.5467 56.84 59.68 56.84V60.04C57.9733 60.7867 55.68 61.9067 52.8 63.4C46.08 67.1333 42.4533 69 41.92 69C40.32 69 38.2933 65.8533 35.84 59.56C33.4933 53.2667 31.5733 50.12 30.08 50.12C28.16 50.12 27.2 51.72 27.2 54.92V90.6C27.2 94.8667 28.16 97 30.08 97C30.5067 97 33.8133 95.6133 40 92.84C46.1867 90.0667 49.92 88.68 51.2 88.68C53.76 88.68 56 90.76 57.92 94.92C59.9467 98.9733 60.96 104.2 60.96 110.6V144.68C60.96 146.707 54.8267 150.227 42.56 155.24C30.4 160.147 23.4133 162.6 21.6 162.6C20.8533 162.6 20 161.693 19.04 159.88C18.08 158.067 16.8 155.507 15.2 152.2C13.7067 148.787 12.32 145.96 11.04 143.72C9.86667 141.48 8.21333 140.36 6.08 140.36V137.16C7.78667 136.413 10.0267 135.293 12.8 133.8C19.6267 130.067 23.3067 128.2 23.84 128.2C25.44 128.2 27.68 131.88 30.56 139.24C33.5467 146.6 35.7867 150.28 37.28 150.28C38.3467 150.28 39.36 149.853 40.32 149C41.28 148.147 41.76 146.973 41.76 145.48V109.48C41.76 104.68 40.4267 102.28 37.76 102.28C36.9067 102.28 33.5467 103.56 27.68 106.12C21.8133 108.68 18.5067 109.96 17.76 109.96ZM75.9688 142.76V63.88C75.9688 60.36 75.2221 57.32 73.7288 54.76C72.2354 52.2 70.3688 50.92 68.1288 50.92V47.4C68.8754 47.2933 74.6888 44.04 85.5688 37.64C86.3154 37.8533 87.2221 38.1733 88.2888 38.6C89.3554 38.92 90.7421 39.9333 92.4488 41.64C94.2621 43.3467 95.1688 45.32 95.1688 47.56C95.8088 47.24 97.6221 46.2267 100.609 44.52C108.502 40.04 113.195 37.8 114.689 37.8C118.102 37.8 121.302 40.04 124.289 44.52C127.275 49 128.769 53.1067 128.769 56.84V137.32C128.769 143.187 131.382 146.653 136.609 147.72V151.24L119.169 161C116.822 160.04 114.635 158.493 112.609 156.36C110.582 154.12 109.569 152.04 109.569 150.12V71.72C109.569 65 108.555 60.4133 106.529 57.96C104.609 55.5067 100.822 54.28 95.1688 54.28V136.36C95.1688 140.627 95.7021 143.56 96.7688 145.16C97.8354 146.653 99.4888 147.4 101.729 147.4V152.36L68.9288 166.12L66.3687 161C68.5021 161 70.5821 159.72 72.6088 157.16C74.8488 154.173 75.9688 149.373 75.9688 142.76ZM166.799 53.32C165.732 53.32 164.772 53.8533 163.919 54.92V97.16H186.479V101L178.479 105H163.919V121C163.919 132.84 165.092 139.773 167.439 141.8C170.959 144.787 174.799 146.493 178.959 146.92C183.119 147.347 187.599 147.56 192.399 147.56V152.2C191.865 152.2 187.919 153.693 180.559 156.68C173.199 159.56 168.719 161 167.119 161C163.812 161 159.225 158.44 153.359 153.32C147.599 148.2 144.719 142.653 144.719 136.68V52.52C144.719 51.7733 150.799 49.16 162.959 44.68C175.225 40.0933 182.265 37.8 184.079 37.8C184.719 37.8 185.465 39.3467 186.319 42.44C187.172 45.5333 188.132 49.2667 189.199 53.64C190.372 58.0133 191.545 61.2667 192.719 63.4C193.999 65.4267 196.345 66.44 199.759 66.44V69.64C197.412 70.7067 193.412 72.6267 187.759 75.4C182.212 78.0667 179.225 79.4 178.799 79.4C177.199 79.4 175.172 75.08 172.719 66.44C170.265 57.6933 168.292 53.32 166.799 53.32ZM209.406 144.68V52.84C209.406 52.0933 215.486 49.48 227.646 45C239.806 40.4133 246.793 38.12 248.606 38.12C250.42 38.12 253.14 40.3067 256.766 44.68C260.5 49.0533 262.366 53 262.366 56.52V98.44H270.206V102.28L262.366 106.28V137.32C262.366 143.187 264.926 146.653 270.046 147.72V151.24L252.606 161C250.26 160.04 248.073 158.493 246.046 156.36C244.02 154.12 243.006 152.04 243.006 150.12V106.28H228.606V136.36C228.606 140.307 229.033 143.133 229.886 144.84C230.74 146.547 232.5 147.4 235.166 147.4V152.36L202.366 166.12L199.806 161C202.153 161 204.393 159.613 206.526 156.84C208.446 154.173 209.406 150.12 209.406 144.68ZM234.846 53C232.713 53 230.633 53.8 228.606 55.4V102.6L238.046 98.44H243.006V64.84C243.006 56.9467 240.286 53 234.846 53ZM331.113 89.96C331.326 90.7067 325.566 93.4267 313.833 98.12C313.833 100.36 314.579 104.093 316.073 109.32C317.566 114.44 319.486 119.827 321.833 125.48C324.286 131.133 327.326 136.093 330.953 140.36C334.579 144.627 338.206 146.76 341.833 146.76V151.56C331.913 157.853 325.619 161 322.953 161C319.219 161 314.153 152.84 307.753 136.52C301.459 120.2 298.313 109.213 298.313 103.56L297.513 103.88V136.36C297.513 140.307 297.939 143.133 298.793 144.84C299.646 146.547 301.406 147.4 304.073 147.4V152.36L271.273 166.12L268.712 161C271.059 161 273.299 159.613 275.433 156.84C277.353 154.173 278.313 150.12 278.313 144.68V61.8C278.313 55.2933 276.126 51.6133 271.753 50.76V47.24L287.913 38.12C290.259 39.08 292.446 40.68 294.473 42.92C296.499 45.0533 297.513 47.0267 297.513 48.84V96.36C300.286 96.36 303.379 95.5067 306.793 93.8C310.206 91.9867 311.913 90.12 311.913 88.2V67.4C311.913 63.4533 311.486 60.6267 310.633 58.92C309.779 57.2133 308.019 56.36 305.353 56.36V51.4L338.153 37.64L340.713 42.76C338.366 42.76 336.126 44.1467 333.993 46.92C332.073 49.5867 331.113 53.64 331.113 59.08V89.96ZM356.198 109.96C353.531 109.96 351.238 107.933 349.318 103.88C347.398 99.8267 346.438 94.8667 346.438 89V55.72C346.438 53.6933 352.038 50.2267 363.238 45.32C374.438 40.3067 380.891 37.8 382.598 37.8C383.878 37.8 385.691 39.9333 388.038 44.2C388.571 45.2667 389.318 46.7067 390.278 48.52C391.344 50.3333 392.198 51.8267 392.838 53C394.224 55.56 395.984 56.84 398.118 56.84V60.04C396.411 60.7867 394.118 61.9067 391.238 63.4C384.518 67.1333 380.891 69 380.358 69C378.758 69 376.731 65.8533 374.278 59.56C371.931 53.2667 370.011 50.12 368.518 50.12C366.598 50.12 365.638 51.72 365.638 54.92V90.6C365.638 94.8667 366.598 97 368.518 97C368.944 97 372.251 95.6133 378.438 92.84C384.624 90.0667 388.358 88.68 389.638 88.68C392.198 88.68 394.438 90.76 396.358 94.92C398.384 98.9733 399.398 104.2 399.398 110.6V144.68C399.398 146.707 393.264 150.227 380.998 155.24C368.838 160.147 361.851 162.6 360.038 162.6C359.291 162.6 358.438 161.693 357.478 159.88C356.518 158.067 355.238 155.507 353.638 152.2C352.144 148.787 350.758 145.96 349.478 143.72C348.304 141.48 346.651 140.36 344.518 140.36V137.16C346.224 136.413 348.464 135.293 351.238 133.8C358.064 130.067 361.744 128.2 362.278 128.2C363.878 128.2 366.118 131.88 368.998 139.24C371.984 146.6 374.224 150.28 375.718 150.28C376.784 150.28 377.798 149.853 378.758 149C379.718 148.147 380.198 146.973 380.198 145.48V109.48C380.198 104.68 378.864 102.28 376.198 102.28C375.344 102.28 371.984 103.56 366.118 106.12C360.251 108.68 356.944 109.96 356.198 109.96ZM448.006 95.56V67.4C448.006 63.4533 447.58 60.6267 446.726 58.92C445.873 57.2133 444.113 56.36 441.446 56.36V51.4L474.246 37.64L476.806 42.76C474.46 42.76 472.22 44.1467 470.086 46.92C468.166 49.5867 467.206 53.64 467.206 59.08V95.56H475.206V99.4L467.206 103.4V137.32C467.206 143.827 469.393 147.507 473.766 148.36V151.88L457.606 161C455.26 160.04 453.073 158.493 451.046 156.36C449.02 154.12 448.006 152.04 448.006 150.12V103.4H433.606V136.36C433.606 140.307 434.033 143.133 434.886 144.84C435.74 146.547 437.5 147.4 440.166 147.4V152.36L407.366 166.12L404.806 161C407.153 161 409.393 159.613 411.526 156.84C413.446 154.173 414.406 150.12 414.406 144.68V61.48C414.406 54.9733 412.22 51.2933 407.846 50.44V46.92L424.006 37.8C426.353 38.76 428.54 40.36 430.566 42.6C432.593 44.7333 433.606 46.76 433.606 48.68V99.88L441.606 95.56H448.006ZM483.156 137.64V52.52C483.156 51.7733 489.236 49.16 501.396 44.68C513.556 40.0933 520.543 37.8 522.356 37.8C524.17 37.8 526.89 39.9867 530.516 44.36C534.25 48.7333 536.116 52.68 536.116 56.2V146.12C536.116 146.973 530.25 149.693 518.516 154.28C506.89 158.76 499.743 161 497.076 161C494.516 161 491.53 158.707 488.116 154.12C484.81 149.533 483.156 144.04 483.156 137.64ZM510.516 146.28C512.543 146.28 514.623 145.427 516.756 143.72V64.52C516.756 56.6267 514.036 52.68 508.596 52.68C506.463 52.68 504.383 53.48 502.356 55.08V134.44C502.356 142.333 505.076 146.28 510.516 146.28ZM571.263 48.84C582.996 41.6933 589.716 38.12 591.423 38.12C593.129 38.12 595.796 40.3067 599.423 44.68C603.156 49.0533 605.023 53 605.023 56.52V106.28C605.023 107.027 600.756 109.107 592.223 112.52C583.796 115.933 576.809 118.493 571.263 120.2V136.36C571.263 140.307 571.689 143.133 572.543 144.84C573.396 146.547 575.156 147.4 577.823 147.4V152.36L545.023 166.12L542.462 161C544.809 161 547.049 159.613 549.183 156.84C551.103 154.173 552.063 150.12 552.063 144.68V61.8C552.063 55.2933 549.876 51.6133 545.503 50.76V47.24L561.663 38.12C563.796 38.9733 565.929 40.52 568.063 42.76C570.196 45 571.263 47.0267 571.263 48.84ZM577.503 53.48C575.583 53.48 573.503 54.28 571.263 55.88V112.68C574.036 112.68 577.129 111.827 580.543 110.12C583.956 108.307 585.663 106.44 585.663 104.52V65.32C585.663 57.4267 582.943 53.48 577.503 53.48Z" fill="black"/>
</svg>
