<svg width="16" height="16" viewBox="0 0 16 16" fill="none" xmlns="http://www.w3.org/2000/svg">
<path d="M6.72724 1C5.5945 1 4.4872 1.3359 3.54536 1.96521C2.60352 2.59453 1.86944 3.489 1.43596 4.53552C1.00248 5.58204 0.889063 6.73359 1.11005 7.84457C1.33104 8.95554 1.8765 9.97604 2.67747 10.777C3.47844 11.578 4.49894 12.1234 5.60991 12.3444C6.72089 12.5654 7.87245 12.452 8.91896 12.0185C9.96548 11.585 10.86 10.851 11.4893 9.90912C12.1186 8.96728 12.4545 7.85998 12.4545 6.72724C12.4544 5.20831 11.8509 3.75162 10.7769 2.67758C9.70286 1.60353 8.24617 1.0001 6.72724 1Z" stroke="black" stroke-miterlimit="10"/>
<path d="M11 11.0002L14.9998 15" stroke="black" stroke-miterlimit="10" stroke-linecap="round"/>
</svg>
