<svg width="100" height="100" viewBox="0 0 100 100" fill="none" xmlns="http://www.w3.org/2000/svg">
<path d="M22.2222 100V78.3111C18.8259 76.8815 15.7611 75.0074 13.0278 72.6889C10.2981 70.3704 7.96481 67.7222 6.02778 64.7444C4.09444 61.7667 2.60741 58.5574 1.56667 55.1167C0.522223 51.6759 0 48.1185 0 44.4444C0 31.3815 4.66667 20.7093 14 12.4278C23.3333 4.14259 35.3296 0 49.9889 0C64.6481 0 76.6481 4.14259 85.9889 12.4278C95.3296 20.7093 100 31.3815 100 44.4444C100 48.1185 99.4778 51.6759 98.4333 55.1167C97.3889 58.5574 95.9 61.7667 93.9667 64.7444C92.0333 67.7222 89.7 70.3704 86.9667 72.6889C84.237 75.0074 81.1741 76.8889 77.7778 78.3333V100H22.2222ZM27.7778 94.4444H35.6833V85.9H44.2333V94.4444H55.7667V85.9H64.3167V94.4444H72.2222V74.7222C75.6 73.6741 78.6556 72.1611 81.3889 70.1833C84.1185 68.2019 86.4556 65.8852 88.4 63.2333C90.3444 60.5815 91.837 57.6537 92.8778 54.45C93.9222 51.25 94.4444 47.9148 94.4444 44.4444C94.4444 32.8704 90.3481 23.4963 82.1556 16.3222C73.963 9.14815 63.2444 5.55926 50 5.55556C36.7593 5.55556 26.0407 9.14444 17.8444 16.3222C9.64815 23.5 5.55185 32.8741 5.55556 44.4444C5.55556 47.9148 6.07778 51.25 7.12222 54.45C8.16296 57.65 9.65555 60.5759 11.6 63.2278C13.5444 65.8833 15.8889 68.2019 18.6333 70.1833C21.3741 72.1611 24.4222 73.6741 27.7778 74.7222V94.4444ZM42.7333 66.6667H57.2667L50 52.1389L42.7333 66.6667ZM30.5722 53.4167C33.0463 53.4167 35.1574 52.537 36.9056 50.7778C38.6537 49.0148 39.5278 46.8981 39.5278 44.4278C39.5278 41.9574 38.6481 39.8463 36.8889 38.0944C35.1259 36.3463 33.0093 35.4722 30.5389 35.4722C28.0685 35.4722 25.9574 36.3518 24.2056 38.1111C22.4574 39.8741 21.5833 41.9907 21.5833 44.4611C21.5833 46.9315 22.463 49.0426 24.2222 50.7944C25.9852 52.5426 28.1019 53.4167 30.5722 53.4167ZM69.4611 53.4167C71.9352 53.4167 74.0463 52.537 75.7944 50.7778C77.5426 49.0148 78.4167 46.8981 78.4167 44.4278C78.4167 41.9574 77.537 39.8463 75.7778 38.0944C74.0148 36.3463 71.8981 35.4722 69.4278 35.4722C66.9574 35.4722 64.8463 36.3518 63.0944 38.1111C61.3463 39.8741 60.4722 41.9907 60.4722 44.4611C60.4722 46.9315 61.3518 49.0426 63.1111 50.7944C64.8741 52.5426 66.9907 53.4167 69.4611 53.4167Z" fill="black"/>
</svg>
